<?xml version="1.0" encoding="UTF-8"?>
<svg width="34px" height="34px" viewBox="0 0 34 34" version="1.1" xmlns="http://www.w3.org/2000/svg" xmlns:xlink="http://www.w3.org/1999/xlink">
    <title>编组 4</title>
    <g id="医馆" stroke="none" stroke-width="1" fill="none" fill-rule="evenodd">
        <g id="1-2icon切图" transform="translate(-1068.000000, -58.000000)" fill="#ACACAC" fill-rule="nonzero">
            <g id="编组-4" transform="translate(1009.000000, 58.000000)">
                <path d="M89.4094668,11.9081238 L89.4094668,9.8065445 L89.4094669,9.80654117 C89.4502076,7.85869469 88.0207868,6.20090318 86.1136167,5.98410729 L76.6075333,5.98410729 L76.2153752,5.23354451 L76.2153753,5.23354457 C75.8262614,4.47424596 75.0526663,3.99849617 74.2095816,4.00000357 L64.0670361,4.00000357 L64.0670359,4.00000357 C62.3506994,4.02625681 60.979029,5.45772529 61.0002428,7.20024166 L61.0002428,26.7997638 L61.0002428,26.7997655 C60.9790328,28.5422793 62.3507044,29.9737417 64.0670359,30.0000036 L87.9329642,30.0000036 L87.9329641,30.0000036 C89.6493006,29.9737506 91.020971,28.5422819 90.9997572,26.7997655 L90.9997572,14.7711613 L90.9997572,14.7711629 C90.9104617,13.6257863 90.3277542,12.5787868 89.4073055,11.9103053 L89.4094668,11.9081238 Z M86.1136167,7.90510712 C86.7693572,7.90510712 87.5172428,8.91891298 87.5172428,9.80653688 L87.5172428,11.1357977 L79.2947897,11.1357977 L77.6104389,7.9072733 L86.1136267,7.9072733 L86.1136167,7.90510712 Z M89.1137236,26.7975602 L89.1137236,26.7975607 C89.1354096,27.4788945 88.6104197,28.0498039 87.9393904,28.0746071 L64.0670335,28.0746071 L64.0670335,28.0746071 C63.3960068,28.0498037 62.8710156,27.4788945 62.8927029,26.7975607 L62.8927029,7.19803854 L62.8927029,7.19803798 C62.8709997,6.51632066 63.3956715,5.94478401 64.067036,5.91881523 L74.2095815,5.91881523 L74.2095815,5.91881523 C74.3515455,5.92119388 74.4797027,6.00567859 74.5395943,6.13637018 L77.8782938,12.5433656 L77.8782939,12.5433657 C78.0423327,12.857556 78.3637751,13.0541909 78.7140418,13.0546201 L87.4079632,13.0546201 L87.4079633,13.0546201 C88.259105,13.229514 88.9243285,13.9048602 89.0966015,14.7689533 L89.0966015,26.7975574 L89.1137236,26.7975602 Z" id="形状"></path>
            </g>
        </g>
    </g>
</svg>