<?xml version="1.0" encoding="UTF-8"?>
<svg width="21px" height="21px" viewBox="0 0 21 21" version="1.1" xmlns="http://www.w3.org/2000/svg" xmlns:xlink="http://www.w3.org/1999/xlink">
    <title>Menu_left</title>
    <g id="医馆" stroke="none" stroke-width="1" fill="none" fill-rule="evenodd">
        <g id="1-2icon切图" transform="translate(-931.000000, -215.000000)" fill="#E02020" fill-rule="nonzero">
            <g id="Menu_left">
                <path d="M949.502152,231.141967 C949.502152,231.219556 949.424562,231.297145 949.424562,231.297145 C949.269383,231.685093 948.959026,231.99545 948.493489,231.99545 C944.458838,231.99545 940.501777,231.99545 936.467126,231.99545 C936.00159,231.99545 935.458464,231.99545 934.992927,231.99545 C934.217033,232.07304 933.751496,231.141967 934.139443,230.443662 C935.070516,228.814283 936.00159,227.184905 936.855073,225.555527 C938.174094,223.227844 939.493114,220.822571 940.889724,218.494888 C941.122492,218.029352 941.743208,217.874173 942.208745,218.106941 C942.441513,218.18453 942.519102,218.339709 942.674281,218.572478 C944.070891,221.05534 945.467501,223.460612 946.864111,225.943474 C947.717595,227.417674 948.571079,228.891873 949.346973,230.366072 C949.424562,230.521251 949.502152,230.598841 949.502152,230.754019 C949.502152,230.909198 949.502152,230.986788 949.502152,231.141967 Z M942.053566,227.88321 C942.131155,227.572852 942.131155,227.262495 942.208745,227.029726 C942.363924,225.865885 942.519102,224.779633 942.674281,223.615791 C942.751871,223.227844 942.751871,222.839897 942.751871,222.37436 C942.751871,222.064002 942.674281,221.831234 942.363924,221.598466 C942.053566,221.365697 941.665619,221.288108 941.277671,221.520876 C940.889724,221.753645 940.734545,222.064002 940.734545,222.529539 C940.734545,222.917486 940.812135,223.383023 940.889724,223.77097 C941.044903,224.857222 941.200082,225.943474 941.277671,227.029726 C941.277671,227.340084 941.355261,227.650442 941.355261,227.88321 C941.665619,227.88321 941.820797,227.88321 942.053566,227.88321 L942.053566,227.88321 Z M942.751871,229.27982 C942.751871,228.736694 942.286334,228.271157 941.743208,228.271157 C941.200082,228.271157 940.734545,228.736694 940.734545,229.27982 C940.734545,229.822946 941.200082,230.288483 941.743208,230.288483 C942.286334,230.288483 942.751871,229.822946 942.751871,229.27982 L942.751871,229.27982 Z" id="形状"></path>
            </g>
        </g>
    </g>
</svg>