<?xml version="1.0" encoding="UTF-8"?>
<svg width="20px" height="20px" viewBox="0 0 20 20" version="1.1" xmlns="http://www.w3.org/2000/svg" xmlns:xlink="http://www.w3.org/1999/xlink">
    <title>次按钮:2/中</title>
    <g id="医馆" stroke="none" stroke-width="1" fill="none" fill-rule="evenodd">
        <g id="1-2icon切图" transform="translate(-845.000000, -217.000000)" fill="#000000" fill-rule="nonzero">
            <g id="次按钮:2/中" transform="translate(834.000000, 210.000000)">
                <g id="次按钮:2/中-2" transform="translate(11.000000, 7.000000)">
                    <path d="M14.2746692,6.94666787 L16.6186652,4.70666404 L15.8799973,4 L13.3386692,6.42533586 L13.33867,6.42533625 C12.4030158,5.96611947 11.375592,5.7245351 10.3333381,5.71867221 C7.65199445,5.71999642 5.56400624,7.35067216 3.00000242,10 C4.13866644,11.1693322 5.18667422,12.2719962 6.38133043,13.0666681 L4.0480102,15.293336 L4.7866547,16 L7.30399446,13.5973282 L7.30399381,13.5973279 C8.24743987,14.0559494 9.28435702,14.2896247 10.3333257,14.2800036 C13.6039936,14.2800036 16.0106615,11.7240037 17.6666614,10.045328 C16.7493177,8.97866397 15.6239896,7.80132808 14.2746576,6.94533201 L14.2746692,6.94666787 Z M7.40000537,9.9999998 C7.40000537,8.42532798 8.71599752,7.14667177 10.3333256,7.14667177 C10.9653295,7.14667177 11.5506693,7.33999598 12.0293333,7.67467175 L10.3693373,9.25999592 L10.3693373,9.25999592 C10.2784557,8.94122718 10.3591823,8.59813032 10.5826654,8.35332798 L10.5826654,8.35332798 C10.50019,8.34029556 10.4168357,8.33361177 10.3333385,8.33333579 C9.39067052,8.33333579 8.62134633,9.07999592 8.62134633,9.99866386 C8.62134633,10.2679959 8.68666664,10.5240037 8.80400648,10.7493318 L7.91067448,11.6053279 L7.91067437,11.6053279 C7.57954235,11.1354035 7.4012322,10.5748699 7.40000537,9.99999965 L7.40000537,9.9999998 Z M10.3333256,12.8533346 C9.70133342,12.8533346 9.11600532,12.6600036 8.63732955,12.3253279 L9.53466937,11.4693318 C9.77466936,11.5933279 10.0453373,11.6626677 10.3333373,11.6626677 C11.2759935,11.6626677 12.0453294,10.9159959 12.0453294,9.99600371 L12.0453295,9.99600935 C12.0441348,9.92428674 12.0396891,9.85265506 12.032006,9.78133475 L12.0320061,9.78133472 C11.7691076,9.97907104 11.4302717,10.0458562 11.1120022,9.96267065 L12.7600099,8.3906707 C13.0813381,8.84667069 13.2706662,9.4000066 13.2706662,9.99733471 C13.2666701,11.5733425 11.9506662,12.8533346 10.3333381,12.8533346 L10.3333256,12.8533346 Z" id="形状"></path>
                </g>
            </g>
        </g>
    </g>
</svg>