<?xml version="1.0" encoding="UTF-8"?>
<svg width="20px" height="20px" viewBox="0 0 20 20" version="1.1" xmlns="http://www.w3.org/2000/svg" xmlns:xlink="http://www.w3.org/1999/xlink">
    <title>次按钮:2/中</title>
    <g id="医馆" stroke="none" stroke-width="1" fill="none" fill-rule="evenodd">
        <g id="1-2icon切图" transform="translate(-845.000000, -176.000000)">
            <g id="次按钮:2/中" transform="translate(834.000000, 169.000000)">
                <path d="M72.9954636,0.5 C73.9636423,0.5 74.8401833,0.891652967 75.4744755,1.52590104 C76.1082057,2.1595871 76.5,3.03537568 76.5,4.0042577 L76.5,4.0042577 L76.5,27.9957423 C76.5,28.96374 76.1081905,29.84011 75.4739319,30.4743244 C74.8400856,31.1081266 73.9641558,31.5 72.9954636,31.5 L72.9954636,31.5 L4.00453643,31.5 C3.03662851,31.5 2.16030399,31.1086394 1.52600511,30.4756606 C0.892132307,29.8431069 0.5,28.9692351 0.5,28.0037973 L0.5,28.0037973 L0.5,3.99620271 C0.5,3.03054507 0.891726952,2.15633918 1.52571199,1.52367351 C2.15964933,0.891055441 3.03572862,0.5 4.00453643,0.5 L4.00453643,0.5 Z" id="Rectangle-77-Copy-4" stroke="#DDDDDD" fill="#FAFAFA"></path>
                <g id="编组-3" transform="translate(11.000000, 7.000000)" fill="#000000" fill-rule="nonzero">
                    <path d="M9.94995026,2.92888771 L9.94995025,2.92888771 C8.72877039,2.92936621 7.72809101,3.89838318 7.68836086,5.11891939 L4.83271236,5.11891939 L4.83271234,5.11891939 C4.51402356,5.12997969 4.26464209,5.39729422 4.27570253,5.71598177 C4.28622401,6.01914489 4.52954922,6.26246974 4.83271234,6.27299158 L5.46915434,6.27299158 L5.46915434,12.7270457 C5.46915434,13.9380921 6.29041542,14.9288877 7.30621863,14.9288877 L12.4790519,14.9288877 C13.492079,14.9288877 14.31542,13.9443466 14.31542,12.7263495 L14.31542,6.27785251 L14.8921092,6.27785251 L14.8921092,6.27785251 C15.210798,6.26679225 15.4601794,5.99947768 15.449119,5.68079012 C15.4385976,5.377627 15.1952723,5.13430215 14.8921092,5.12378032 L12.208071,5.12378032 L12.208071,5.12378034 C12.1741934,3.90125701 11.172945,2.92804553 9.9499502,2.92888771 L9.94995026,2.92888771 Z M8.76878023,5.11891939 C8.81185819,4.49359401 9.32115139,4.0093137 9.95203509,4.0093137 C10.5829188,4.0093137 11.0922121,4.49567761 11.1290367,5.11891939 L8.76947151,5.11891939 L8.76878023,5.11891939 Z M7.30412652,13.849854 C6.94421756,13.849854 6.54817775,13.3885031 6.54817775,12.7270481 L6.54817775,6.27715878 L13.2322099,6.27715878 L13.2322099,12.731909 C13.2322099,13.3919742 12.8361701,13.8554099 12.4769561,13.8554099 L7.30412285,13.8554099 L7.30412285,13.8498514 L7.30412652,13.849854 Z M8.07883505,12.463024 C8.34286159,12.463024 8.55964065,12.1996924 8.55964065,11.8689649 L8.55964065,8.47830901 C8.55964065,8.14827644 8.34425025,7.8842499 8.07883505,7.8842499 C7.81550345,7.8842499 7.59802945,8.14827644 7.59802945,8.47900395 L7.59802945,11.8696598 C7.59802945,12.1976088 7.80994513,12.463024 8.07883505,12.463024 L8.07883505,12.463024 Z M9.81932809,12.463024 C10.0833546,12.463024 10.3001337,12.1996924 10.3001337,11.8689649 L10.3001337,8.47830901 C10.3001337,8.14827644 10.0847433,7.8842499 9.81932809,7.8842499 C9.55530155,7.8842499 9.33852249,8.14827644 9.33852249,8.47900395 L9.33852249,11.8696598 C9.33852249,12.1976088 9.55599649,12.463024 9.81932809,12.463024 L9.81932809,12.463024 Z M11.6501391,12.463024 C11.9141657,12.463024 12.1309447,12.1996924 12.1309447,11.8689649 L12.1309447,8.47830901 C12.1309447,8.14827644 11.9155543,7.8842499 11.6501391,7.8842499 C11.3861126,7.8842499 11.1693335,8.14827644 11.1693335,8.47900395 L11.1693335,11.8696598 C11.1693335,12.1976088 11.3791644,12.463024 11.6501391,12.463024 L11.6501391,12.463024 Z" id="形状"></path>
                </g>
            </g>
        </g>
    </g>
</svg>