<?xml version="1.0" standalone="no"?><!DOCTYPE svg PUBLIC "-//W3C//DTD SVG 1.1//EN" "http://www.w3.org/Graphics/SVG/1.1/DTD/svg11.dtd"><svg t="1603960671245" class="icon" viewBox="0 0 1024 1024" version="1.1" xmlns="http://www.w3.org/2000/svg" p-id="3643" xmlns:xlink="http://www.w3.org/1999/xlink" width="200" height="200"><defs><style type="text/css"></style></defs><path d="M585.2 165.9c-7.6 0-13.8-6.2-13.8-13.8 0-32.7-26.6-59.2-59.2-59.2S453 119.4 453 152.1c0 7.6-6.2 13.8-13.8 13.8s-13.8-6.2-13.8-13.8c0-47.9 38.9-86.8 86.8-86.8s86.8 38.9 86.8 86.8c0 7.6-6.2 13.8-13.8 13.8zM512.2 959.3c-64.6 0-117.1-52.5-117.1-117.1 0-7.6 6.2-13.8 13.8-13.8s13.8 6.2 13.8 13.8c0 49.3 40.1 89.5 89.5 89.5s89.5-40.1 89.5-89.5c0-7.6 6.2-13.8 13.8-13.8s13.8 6.2 13.8 13.8c-0.1 64.6-52.6 117.1-117.1 117.1z" p-id="3644" fill="#2472FF"></path><path d="M833.6 857.2H190.7c-27 0-49-22-49-49 0-2.4 0.7-4.9 1.9-7l86-146.9V418.2c0-155.8 126.7-282.5 282.5-282.5s282.5 126.7 282.5 282.5v236.2l86 146.9c1.2 2.1 1.9 4.5 1.9 7 0 26.9-21.9 48.9-48.9 48.9z m-663.9-45.6c1.6 10.2 10.4 18 21.1 18h642.8c10.6 0 19.5-7.8 21.1-18L769 665.1c-1.2-2.1-1.9-4.5-1.9-7V418.2c0-140.5-114.3-254.9-254.9-254.9S257.3 277.6 257.3 418.2v239.9c0 2.4-0.7 4.9-1.9 7l-85.7 146.5z" p-id="3645" fill="#2472FF"></path></svg>